<?xml version="1.0" encoding="utf-8"?>
<!-- Generator: Adobe Illustrator 23.0.1, SVG Export Plug-In . SVG Version: 6.00 Build 0)  -->
<svg version="1.1" id="Layer_1" xmlns="http://www.w3.org/2000/svg" xmlns:xlink="http://www.w3.org/1999/xlink" x="0px" y="0px"
	 viewBox="0 0 302 21" style="enable-background:new 0 0 302 21;" xml:space="preserve">
<style type="text/css">
	.st0{fill-rule:evenodd;clip-rule:evenodd;fill:#175851;}
</style>
<path class="st0" d="M99.4,10.5c1.6,0,3.3,0.1,5,0.1c1.7,0,3.4,0,5.1,0c5.3,0,10.5-0.1,15.8-0.1c4.5,0,8.9-0.1,13.4-0.1
	c8,0.1,15.9,0.2,23.9,0.4c5,0.1,10,0.2,15.1,0.4c5.3,0.1,10.6,0.2,15.9,0.3c3.5,0.1,6.9,0.1,10.4,0c1.5,0,2.9-0.1,4.4-0.2
	c1.1-0.1,1.4-0.2,1.5-1.2c0-1,0.6-3.3,1.5-4.5c1.6-2.1,5.1-3.8,5.2-3.8c0.4,0,0.5,0.2,0.5,0.8c-0.1,1.7-0.6,3.2-1.6,4.6
	c-1.5,2-3.3,2.7-4,3.6c1.1-0.4,3.4-0.9,5.1-0.9c2.8,0,5.7,1.3,6.8,1.9c0.4,0,0.5,0.5,0.1,0.7c-1.2,0.6-3.5,1.1-6.2,0.9
	c-3.3-0.2-4.9-1.3-6-1.7c-0.2-0.1-0.3-0.4-0.4-0.7c-0.6,0.7-1.3,0.8-2.2,0.8c-4.2,0-8.5,0.1-12.7,0.1c-4.3,0-8.5-0.1-12.8-0.2
	c-4.8-0.1-9.6-0.3-14.4-0.4c-3.7-0.1-7.5-0.1-11.2-0.1c-2.1,0-4.1-0.1-6.2-0.2c-3.3,0-6.5-0.1-9.8-0.1c-3.6,0-7.1,0-10.7,0
	c-3.8,0-7.5,0.1-11.2,0.1c-2.5,0-4.9,0-7.4,0c-4.2,0-8.4,0-12.7,0.1C98.8,11.2,98.3,10.5,99.4,10.5L99.4,10.5z M97.6,13.2
	c1,0,2,0.1,3,0.1c4.8,0,9.6-0.1,14.4-0.1c0.6,0,1.1,0,1.7,0c5.9,0,11.8-0.1,17.7-0.1c1.8,0,3.6,0.1,5.4,0c4.2-0.1,8.4-0.3,12.7-0.4
	c0.7,0,1.3,0,2,0c3.2-0.1,6.4-0.2,9.7-0.2c0.6,0,1.2,0,1.9,0c1.2,0.1,1.7,1.4,0.7,1.6c-1,0.2-2.9,0.1-4.3,0.1c-3.9,0-7.8,0-11.7,0
	c-1.9,0-3.9-0.1-5.8-0.1c-3.7,0-7.4,0.1-11.1,0.1c-4.4,0.1-18-0.4-19.2-0.3c-5.2,0.3-10.3,0.2-15.5,0c-0.3,0-0.7,0-1.1,0
	c0.9,1.8,0.1,3.3-0.5,4.2c-0.5,0.7-2.3,2-2.8,1.9c-0.5-0.1-1.2-3.4,0.5-5.1c-1.2,0.5-2.8,0.7-4.2,0.6c-1.4-0.1-4.3-0.9-4.3-1.3
	c0-0.3,2.5-1.3,3.7-1.4c1.5-0.2,3.2-0.1,4.7,0.3c0,0-1.8-0.9-2.6-2.3c-0.6-1.3-0.8-3.7-0.5-3.8c0.7-0.2,3.6,1.4,5,3.3
	C97.6,11.2,97.5,12.5,97.6,13.2L97.6,13.2z M89.5,11.2c-5.6,0.2-11.2,0.1-16.8,0.2c-5.1,0.1-44.3,0.2-49.3,0.3c-3.9,0-7.9,0-11.8,0
	c-0.3,0-0.6,0-0.8-0.1c-0.5-0.1-1-0.3-1-0.9c0.1-0.7,0.6-0.6,1.1-0.6c2,0.1,4.1,0.2,6.1,0.2c2.3,0.1,4.6,0.1,6.8,0.1
	c2.7,0,39.4,0,42.1,0c3.5,0,6.9-0.1,10.4-0.2c3.8-0.1,7.5-0.1,11.3-0.2c0.2,0,1.3,0.1,1.5,0.1C89.9,10.1,90.7,11.2,89.5,11.2z
	 M206.6,6.9c0.3,0.3,0,0.6-0.6,0.6c-2.2-0.1-4.5-0.2-6.7-0.2c-2.2,0-4.4,0.1-6.5,0.1c-3.6,0-7.2,0-10.8,0.1
	c-3.6,0.1-7.2,0.2-10.8,0.2c-2.5,0-4.9,0-7.4,0c-4.6,0-9.2,0.1-13.8,0.1c-1.6,0-3.1,0-4.7,0c-3.6,0-12.9,0.1-14.1,0.1
	c-3.5,0.1-7,0.3-10.5,0.4c-1.8,0.1-3.6,0.1-5.4,0.1c-0.6,0-1.1-0.1-1.7-0.3c-1.3-0.4-2.2-2-1.1-2.3c1.1-0.4,7.8,0.3,11.7,0.4
	c2.7,0.1,5.4,0.3,8.1,0.3c3.4,0,6.8-0.1,10.3-0.1c5.8,0,11.6,0,17.4,0c4.7,0,9.5,0,14.2,0.1c5.6,0,11.2,0.1,16.8,0.1
	c4.6,0,9.1,0.1,13.7,0.1C205.4,6.8,206.3,6.6,206.6,6.9L206.6,6.9z M210.3,12.1c1.2,0.2,2.9,1.1,3.9,2c1.5,1.6,1.8,4.6,1.5,4.8
	c-0.3,0.1-2.7-0.7-3.8-1.6c-1.1-0.9-2.1-2.2-2.2-3.8c0-0.4,0.1-0.9,0.3-1.3C210.1,12.2,210.2,12.1,210.3,12.1z M296.5,0.6
	c0.2,0.2,0.2,3.1-1.2,4.5c-1.9,1.9-4.2,2.2-4.4,2.2c-0.3-0.1-0.7-1.9,0.9-3.9C293.5,1.3,296.2,0.4,296.5,0.6z M296.1,14
	c-0.2,0.2-2.7-0.7-4.1-2.5c-1.4-1.8-1.1-3.4-0.8-3.4c0.2,0,2.2,0.3,3.8,1.9C296.3,11.3,296.3,13.8,296.1,14z M297.1,9.2
	c-1.7,0-3.9-1-3.9-1.3c0-0.3,2-1.8,4-1.8c2.9,0,4.5,1.5,4.4,1.7C301.4,8.2,299.6,9.2,297.1,9.2L297.1,9.2z M218.6,6.7
	c0.1-0.1,1-0.1,1.4-0.1c5.9,0.5,58.7,0.6,64.5,0.5c1.4,0,2.8,0.1,4.3,0.1c0.5,0,1.2-0.1,1.5,0.1c0.3,0.3-0.3,0.5-0.8,0.5
	c-1.2,0-2.5-0.1-3.7-0.1c-3.1,0-53.2,0-56.3-0.1c-3.2-0.1-6.3-0.2-9.5-0.4c-0.4,0-1.1,0-1.3-0.1C218.5,7.1,218.5,6.8,218.6,6.7z
	 M105.5,5.9c0.5-0.1,1,0.3,0.9,0.9c0,0.2-0.2,0.5-0.5,0.5c-0.3,0-0.7-0.3-0.7-0.6C105,6.4,105,6,105.5,5.9L105.5,5.9z M109.2,6
	c0.3,0.2,0.4,0.6,0.2,0.9c-0.3,0.4-0.7,0.5-1.2,0.4c-0.6-0.2-0.4-0.7-0.3-1.1C108.2,5.5,108.9,5.8,109.2,6z M3.8,10.2
	c0.5-0.1,1,0.3,0.9,0.9c0,0.2-0.2,0.5-0.5,0.5c-0.3,0-0.7-0.3-0.7-0.6C3.4,10.7,3.4,10.3,3.8,10.2z M7.5,10.2
	c0.3,0.2,0.4,0.6,0.2,0.9c-0.3,0.4-0.7,0.5-1.2,0.4c-0.6-0.2-0.4-0.7-0.3-1.1C6.5,9.8,7.2,10.1,7.5,10.2z M1.3,10.2
	c0.3,0.2,0.4,0.6,0.2,0.9c-0.3,0.4-0.7,0.5-1.2,0.4c-0.6-0.2-0.4-0.7-0.3-1.1C0.4,9.8,1.1,10.1,1.3,10.2z M173,14.1
	c-0.5,0.1-1-0.3-0.9-0.9c0-0.2,0.2-0.5,0.5-0.5c0.3,0,0.7,0.3,0.7,0.6C173.5,13.6,173.5,14,173,14.1L173,14.1z M169.1,13.1
	c0.3-0.4,0.7-0.5,1.2-0.4c0.6,0.2,0.4,0.7,0.3,1.1c-0.2,0.6-1,0.4-1.2,0.2S168.9,13.4,169.1,13.1z"/>
</svg>
